<svg xmlns="http://www.w3.org/2000/svg" xmlns:se="http://svg-edit.googlecode.com"
     xmlns:xlink="http://www.w3.org/1999/xlink" xmlns:dc="http://purl.org/dc/elements/1.1/"
     xmlns:cc="http://creativecommons.org/ns#" xmlns:rdf="http://www.w3.org/1999/02/22-rdf-syntax-ns#"
     xmlns:inkscape="http://www.inkscape.org/namespaces/inkscape" width="180" height="50" style="">
    <title>my vector image
    </title>                                    <!-- Created with Vector Paint - http://www.vectorpaint.yaks.com/ https://chrome.google.com/webstore/detail/hnbpdiengicdefcjecjbnjnoifekhgdo -->
    <rect id="backgroundrect" width="100%" height="100%" x="0" y="0" fill="#FFFFFF" stroke="none" class="" style=""/>
    <g class="currentLayer" style="">
        <title>Layer 1</title>
        <path fill="#000000" fill-opacity="1" stroke="#222222" stroke-opacity="1" stroke-width="2"
              stroke-dasharray="none" stroke-linejoin="round" stroke-linecap="butt" stroke-dashoffset=""
              fill-rule="nonzero" opacity="1" marker-start="" marker-mid="" marker-end=""
              d="M4.6853230029735755,29.89510349950106L13.076931002833533,15.209789499746137" id="svg_1"/>
        <path fill="#000000" fill-opacity="1" stroke="#222222" stroke-opacity="1" stroke-width="2"
              stroke-dasharray="none" stroke-linejoin="round" stroke-linecap="butt" stroke-dashoffset=""
              fill-rule="nonzero" opacity="1" marker-start="" marker-mid="" marker-end=""
              d="M13.076931002833533,15.209789499746137L17.27273500276351,30.59440416615607" id="svg_3"/>
        <polyline fill="none" stroke="#222222" stroke-width="2" stroke-linejoin="round" stroke-dashoffset=""
                  fill-rule="nonzero" marker-start="" marker-mid="" marker-end="" id="svg_2"
                  points="34.755251669138374,17.307691499711126 33.35665033582836,17.307691499711126 32.65734966917341,17.307691499711126 31.258748335863398,17.307691499711126 30.559447669208396,17.307691499711126 29.86014700255339,17.307691499711126 28.461545669243435,17.307691499711126 27.76224500258843,18.706292833021138 27.76224500258843,19.405593499676115 27.06294433593342,20.10489416633112 27.06294433593342,20.804194832986127 26.36364366927842,21.503495499641105 25.66434300262341,22.902096832951116 25.66434300262341,23.601397499606122 25.66434300262341,25.699299499571083 24.965042335968466,27.097900832881095 24.965042335968466,27.7972014995361 24.965042335968466,29.195802832846056 24.965042335968466,29.89510349950106 24.965042335968466,30.59440416615607 24.965042335968466,31.293704832811073 26.36364366927842,31.993005499466026 27.06294433593342,31.993005499466026 27.76224500258843,31.993005499466026 29.160846335898384,32.69230616612103 30.559447669208396,32.69230616612103 31.958049002518408,32.69230616612103 33.35665033582836,32.69230616612103 34.755251669138374,32.69230616612103 35.45455233579338,32.69230616612103 36.85315366910339,31.293704832811073 38.25175500241335,31.293704832811073 38.95105566906835,30.59440416615607 39.65035633572336,30.59440416615607 39.65035633572336,29.89510349950106 40.349657002378365,29.89510349950106 40.349657002378365,29.195802832846056 41.048957669033314,29.195802832846056 41.74825833568832,29.195802832846056 41.74825833568832,28.49650216619105 42.447559002343326,27.7972014995361 42.447559002343326,27.097900832881095 43.14685966899833,27.097900832881095 43.14685966899833,26.398600166226085 43.84616033565334,25.699299499571083 43.84616033565334,24.999998832916077 44.54546100230834,24.999998832916077 44.54546100230834,24.30069816626107 44.54546100230834,23.601397499606122 44.54546100230834,22.902096832951116 44.54546100230834,22.20279616629611 44.54546100230834,21.503495499641105 43.14685966899833,21.503495499641105 42.447559002343326,21.503495499641105 41.74825833568832,20.804194832986127 41.048957669033314,20.804194832986127 40.349657002378365,20.804194832986127 39.65035633572336,20.804194832986127 38.95105566906835,20.10489416633112 38.25175500241335,20.10489416633112 37.55245433575834,20.10489416633112 37.55245433575834,19.405593499676115 36.85315366910339,19.405593499676115 36.153853002448386,19.405593499676115 "
                  style="color: rgb(0, 0, 0);"/>
        <polyline fill="none" stroke="#222222" stroke-width="2" stroke-linejoin="round" stroke-dashoffset=""
                  fill-rule="nonzero" marker-start="" marker-mid="" marker-end="" id="svg_4"
                  points="55.03497100213326,15.909090166401144 55.03497100213326,17.307691499711126 55.03497100213326,18.706292833021138 55.03497100213326,20.10489416633112 55.03497100213326,22.20279616629611 55.03497100213326,22.902096832951116 55.734271668788274,24.999998832916077 55.734271668788274,26.398600166226085 56.433572335443266,27.097900832881095 56.433572335443266,28.49650216619105 56.433572335443266,29.195802832846056 57.13287300209823,29.89510349950106 57.13287300209823,30.59440416615607 57.13287300209823,31.293704832811073 57.13287300209823,31.993005499466026 57.832173668753235,31.993005499466026 "
                  style="color: rgb(0, 0, 0);"/>
        <polyline fill="none" stroke="#222222" stroke-width="2" stroke-linejoin="round" stroke-dashoffset=""
                  fill-rule="nonzero" marker-start="" marker-mid="" marker-end="" id="svg_5"
                  points="55.734271668788274,15.209789499746137 57.13287300209823,15.209789499746137 57.832173668753235,15.209789499746137 59.23077500206324,15.209789499746137 59.930075668718246,15.209789499746137 61.3286770020282,14.51048883309116 62.72727833533821,14.51048883309116 63.42657900199322,13.811188166436152 64.82518033530317,13.811188166436152 65.52448100195818,13.111887499781174 66.22378166861319,13.111887499781174 66.92308233526819,13.111887499781174 67.6223830019232,13.111887499781174 68.3216836685782,13.111887499781174 "
                  style="color: rgb(0, 0, 0);"/>
        <polyline fill="none" stroke="#222222" stroke-width="2" stroke-linejoin="round" stroke-dashoffset=""
                  fill-rule="nonzero" marker-start="" marker-mid="" marker-end="" id="svg_6"
                  points="80.90909566836808,14.51048883309116 79.51049433505813,14.51048883309116 78.81119366840312,14.51048883309116 77.41259233509311,16.60839083305615 76.7132916684381,17.307691499711126 76.01399100178315,18.706292833021138 75.31469033512815,20.10489416633112 73.91608900181814,21.503495499641105 72.51748766850812,22.902096832951116 71.81818700185318,24.30069816626107 71.81818700185318,24.999998832916077 71.11888633519817,24.999998832916077 71.11888633519817,25.699299499571083 71.11888633519817,26.398600166226085 71.11888633519817,27.097900832881095 71.11888633519817,27.7972014995361 71.11888633519817,28.49650216619105 73.21678833516313,29.195802832846056 73.91608900181814,29.195802832846056 74.61538966847314,29.195802832846056 75.31469033512815,29.195802832846056 76.01399100178315,29.195802832846056 76.7132916684381,29.195802832846056 77.41259233509311,29.195802832846056 78.81119366840312,27.7972014995361 79.51049433505813,27.7972014995361 79.51049433505813,27.097900832881095 80.20979500171313,27.097900832881095 80.90909566836808,26.398600166226085 81.60839633502309,26.398600166226085 82.3076970016781,24.999998832916077 83.7062983349881,24.999998832916077 84.40559900164305,24.30069816626107 85.10489966829806,23.601397499606122 85.80420033495307,22.902096832951116 85.80420033495307,22.20279616629611 85.80420033495307,21.503495499641105 86.50350100160807,21.503495499641105 86.50350100160807,20.804194832986127 86.50350100160807,20.10489416633112 86.50350100160807,19.405593499676115 86.50350100160807,18.706292833021138 85.10489966829806,18.006992166366132 84.40559900164305,17.307691499711126 83.7062983349881,16.60839083305615 83.7062983349881,15.909090166401144 83.7062983349881,15.209789499746137 83.0069976683331,15.209789499746137 82.3076970016781,14.51048883309116 81.60839633502309,14.51048883309116 81.60839633502309,13.811188166436152 80.90909566836808,13.811188166436152 "
                  style="color: rgb(0, 0, 0);"/>
        <polyline fill="none" stroke="#222222" stroke-width="2" stroke-linejoin="round" stroke-dashoffset=""
                  fill-rule="nonzero" marker-start="" marker-mid="" marker-end="" id="svg_7"
                  points="101.88811566801797,15.909090166401144 101.88811566801797,16.60839083305615 101.88811566801797,17.307691499711126 101.88811566801797,19.405593499676115 101.88811566801797,20.804194832986127 101.88811566801797,21.503495499641105 101.88811566801797,22.902096832951116 101.88811566801797,23.601397499606122 101.88811566801797,24.999998832916077 101.88811566801797,25.699299499571083 102.58741633467298,26.398600166226085 102.58741633467298,27.097900832881095 102.58741633467298,27.7972014995361 102.58741633467298,28.49650216619105 102.58741633467298,29.195802832846056 "
                  style="color: rgb(0, 0, 0);"/>
        <polyline fill="none" stroke="#222222" stroke-width="2" stroke-linejoin="round" stroke-dashoffset=""
                  fill-rule="nonzero" marker-start="" marker-mid="" marker-end="" id="svg_8"
                  points="94.19580833481302,15.909090166401144 95.59440966812303,15.909090166401144 96.29371033477798,15.909090166401144 96.99301100143299,15.209789499746137 97.692311668088,15.209789499746137 99.09091300139801,15.209789499746137 100.48951433470796,15.209789499746137 101.88811566801797,15.209789499746137 103.28671700132799,15.209789499746137 104.68531833463794,15.209789499746137 105.38461900129295,15.209789499746137 106.08391966794795,15.209789499746137 106.78322033460297,15.209789499746137 107.48252100125798,15.209789499746137 108.18182166791291,15.209789499746137 109.58042300122294,15.209789499746137 110.97902433453292,15.209789499746137 110.97902433453292,16.60839083305615 111.67832500118794,16.60839083305615 "
                  style="color: rgb(0, 0, 0);"/>
        <polyline fill="none" stroke="#222222" stroke-width="2" stroke-linejoin="round" stroke-dashoffset=""
                  fill-rule="nonzero" marker-start="" marker-mid="" marker-end="" id="svg_9"
                  points="121.46853433435786,15.909090166401144 121.46853433435786,17.307691499711126 121.46853433435786,18.706292833021138 121.46853433435786,20.804194832986127 121.46853433435786,21.503495499641105 121.46853433435786,22.902096832951116 121.46853433435786,24.30069816626107 121.46853433435786,24.999998832916077 121.46853433435786,25.699299499571083 121.46853433435786,26.398600166226085 121.46853433435786,27.097900832881095 121.46853433435786,27.7972014995361 122.16783500101286,28.49650216619105 122.16783500101286,29.195802832846056 122.86713566766787,29.195802832846056 122.86713566766787,30.59440416615607 122.86713566766787,31.293704832811073 122.86713566766787,31.993005499466026 122.86713566766787,30.59440416615607 123.56643633432282,30.59440416615607 123.56643633432282,29.195802832846056 123.56643633432282,27.7972014995361 124.26573700097782,26.398600166226085 124.26573700097782,24.999998832916077 124.26573700097782,24.30069816626107 124.26573700097782,22.902096832951116 124.26573700097782,22.20279616629611 124.26573700097782,21.503495499641105 124.26573700097782,20.804194832986127 124.96503766763283,19.405593499676115 124.96503766763283,18.706292833021138 124.96503766763283,18.006992166366132 124.96503766763283,17.307691499711126 125.66433833428783,17.307691499711126 125.66433833428783,16.60839083305615 125.66433833428783,15.909090166401144 126.36363900094285,15.909090166401144 126.36363900094285,15.209789499746137 127.06293966759786,15.209789499746137 127.76224033425281,15.209789499746137 128.4615410009078,14.51048883309116 129.1608416675628,14.51048883309116 129.1608416675628,13.811188166436152 129.1608416675628,15.209789499746137 129.8601423342178,15.909090166401144 129.8601423342178,17.307691499711126 129.8601423342178,18.006992166366132 130.55944300087282,18.706292833021138 130.55944300087282,19.405593499676115 130.55944300087282,20.10489416633112 131.25874366752782,20.804194832986127 131.25874366752782,21.503495499641105 131.25874366752782,22.20279616629611 131.25874366752782,22.902096832951116 131.25874366752782,24.30069816626107 131.25874366752782,24.999998832916077 131.25874366752782,25.699299499571083 131.25874366752782,27.097900832881095 131.95804433418277,27.7972014995361 131.95804433418277,29.195802832846056 132.65734500083778,30.59440416615607 133.35664566749278,31.293704832811073 133.35664566749278,31.993005499466026 134.0559463341478,31.993005499466026 134.0559463341478,32.69230616612103 "
                  style="color: rgb(0, 0, 0);"/>
        <polyline fill="none" stroke="#222222" stroke-width="2" stroke-linejoin="round" stroke-dashoffset=""
                  fill-rule="nonzero" marker-start="" marker-mid="" marker-end="" id="svg_10"
                  points="147.34265900059268,12.41258683312617 147.34265900059268,13.811188166436152 147.34265900059268,15.909090166401144 147.34265900059268,17.307691499711126 147.34265900059268,19.405593499676115 147.34265900059268,20.804194832986127 148.04195966724768,22.20279616629611 148.04195966724768,23.601397499606122 148.04195966724768,24.999998832916077 148.04195966724768,25.699299499571083 148.04195966724768,27.097900832881095 148.04195966724768,27.7972014995361 148.04195966724768,28.49650216619105 "
                  style="color: rgb(0, 0, 0);"/>
        <polyline fill="none" stroke="#222222" stroke-width="2" stroke-linejoin="round" stroke-dashoffset=""
                  fill-rule="nonzero" marker-start="" marker-mid="" marker-end="" id="svg_11"
                  points="145.24475700062771,14.51048883309116 146.64335833393773,14.51048883309116 148.04195966724768,13.811188166436152 148.7412603339027,13.811188166436152 149.4405610005577,13.811188166436152 150.1398616672127,13.811188166436152 150.8391623338677,13.811188166436152 151.53846300052265,13.811188166436152 152.23776366717766,13.811188166436152 153.63636500048767,13.811188166436152 154.33566566714268,13.811188166436152 155.03496633379763,13.811188166436152 155.73426700045263,13.811188166436152 156.43356766710764,13.811188166436152 157.13286833376264,13.811188166436152 157.13286833376264,15.209789499746137 157.13286833376264,16.60839083305615 157.13286833376264,18.006992166366132 157.13286833376264,19.405593499676115 157.13286833376264,20.804194832986127 157.13286833376264,21.503495499641105 157.13286833376264,22.20279616629611 157.13286833376264,22.902096832951116 157.13286833376264,23.601397499606122 157.13286833376264,24.30069816626107 157.13286833376264,24.999998832916077 157.13286833376264,25.699299499571083 157.13286833376264,26.398600166226085 157.13286833376264,27.097900832881095 157.13286833376264,27.7972014995361 157.13286833376264,28.49650216619105 157.13286833376264,29.195802832846056 157.13286833376264,29.89510349950106 157.13286833376264,30.59440416615607 157.13286833376264,31.293704832811073 157.13286833376264,31.993005499466026 157.13286833376264,32.69230616612103 157.13286833376264,33.391606832776034 157.13286833376264,34.09090749943104 157.13286833376264,34.790208166086046 157.13286833376264,35.48950883274105 "
                  style="color: rgb(0, 0, 0);"/>
        <path fill="none" fill-opacity="1" stroke="#222222" stroke-opacity="1" stroke-width="2" stroke-dasharray="none"
              stroke-linejoin="round" stroke-linecap="butt" stroke-dashoffset="" fill-rule="nonzero" opacity="1"
              marker-start="" marker-mid="" marker-end="" id="svg_12" d="M-178.53145166063533,-90.38461116515822 "
              style="color: rgb(0, 0, 0);"/>
    </g>
</svg>